<svg width="343" height="31" viewBox="0 0 343 31" fill="none" xmlns="http://www.w3.org/2000/svg">
<rect x="0.5" y="0.933105" width="30" height="30" rx="5" fill="url(#paint0_linear_185_60)"/>
<path d="M21 10.9331H10C9.72386 10.9331 9.5 11.157 9.5 11.4331V18.9331C9.5 19.2092 9.72386 19.4331 10 19.4331H21C21.2761 19.4331 21.5 19.2092 21.5 18.9331V11.4331C21.5 11.157 21.2761 10.9331 21 10.9331Z" stroke="white" stroke-linecap="round" stroke-linejoin="round"/>
<path d="M17.5 19.4331L19.5 21.9331" stroke="white" stroke-linecap="round" stroke-linejoin="round"/>
<path d="M13.5 19.4331L11.5 21.9331" stroke="white" stroke-linecap="round" stroke-linejoin="round"/>
<path d="M13.5 15.4331V16.9331" stroke="white" stroke-linecap="round" stroke-linejoin="round"/>
<path d="M15.5 14.4331V16.9331" stroke="white" stroke-linecap="round" stroke-linejoin="round"/>
<path d="M17.5 13.4331V16.9331" stroke="white" stroke-linecap="round" stroke-linejoin="round"/>
<path d="M15.5 10.9331V9.43311" stroke="white" stroke-linecap="round" stroke-linejoin="round"/>
<rect x="39.5" y="0.933105" width="30" height="30" rx="5" fill="#F7F7F9"/>
<path d="M46.6246 16.9279C45.8478 15.7493 45.5757 14.356 45.8595 13.0096C46.1434 11.6633 46.9635 10.4564 48.166 9.6158C49.3685 8.77515 50.8707 8.35851 52.3903 8.44409C53.91 8.52968 55.3427 9.11162 56.4194 10.0806C57.4961 11.0496 58.1427 12.3391 58.2378 13.7068C58.3329 15.0745 57.87 16.4264 56.9359 17.5087C56.0019 18.5909 54.661 19.3291 53.165 19.5845C51.669 19.8399 50.1209 19.5951 48.8113 18.896L48.8114 18.8959L46.6518 19.4512C46.5625 19.4742 46.4679 19.4752 46.378 19.4543C46.288 19.4333 46.2059 19.391 46.1402 19.3319C46.0745 19.2728 46.0276 19.1989 46.0043 19.1179C45.981 19.037 45.9821 18.9519 46.0077 18.8715L46.6247 16.9279L46.6246 16.9279Z" stroke="#283859" stroke-linecap="round" stroke-linejoin="round"/>
<path d="M50.75 19.254C51.0662 20.1269 51.5774 20.9207 52.247 21.5783C52.9165 22.2359 53.7277 22.7409 54.6221 23.0569C55.5165 23.3729 56.4718 23.4921 57.4192 23.4059C58.3667 23.3196 59.2826 23.0301 60.1012 22.5582L60.1012 22.5582L62.3224 23.1754C62.4143 23.2009 62.5116 23.2021 62.6041 23.1788C62.6966 23.1554 62.781 23.1085 62.8486 23.0428C62.9162 22.977 62.9645 22.8949 62.9885 22.8049C63.0124 22.715 63.0112 22.6204 62.985 22.531L62.3503 20.3708L62.3504 20.3708C62.9143 19.446 63.2235 18.3954 63.2484 17.3204C63.2732 16.2455 63.0127 15.1825 62.4921 14.2339C61.9715 13.2854 61.2083 12.4833 60.2762 11.9051C59.344 11.327 58.2744 10.9922 57.1705 10.9331" stroke="#283859" stroke-linecap="round" stroke-linejoin="round"/>
<rect x="78.5" y="0.933105" width="30" height="30" rx="5" fill="#F7F7F9"/>
<path d="M86.5 14.4331L93.5 18.4331L100.5 14.4331L93.5 10.4331L86.5 14.4331Z" stroke="#283859" stroke-linecap="round" stroke-linejoin="round"/>
<path d="M86.5 16.9331L93.5 20.9331L100.5 16.9331" stroke="#283859" stroke-linecap="round" stroke-linejoin="round"/>
<rect x="117.5" y="0.933105" width="30" height="30" rx="5" fill="#F7F7F9"/>
<path d="M137 11.4331L128 20.4331" stroke="#283859" stroke-linecap="round" stroke-linejoin="round"/>
<path d="M129.25 14.4331C130.216 14.4331 131 13.6496 131 12.6831C131 11.7166 130.216 10.9331 129.25 10.9331C128.284 10.9331 127.5 11.7166 127.5 12.6831C127.5 13.6496 128.284 14.4331 129.25 14.4331Z" stroke="#283859" stroke-width="1.6" stroke-miterlimit="10"/>
<path d="M135.75 20.9331C136.716 20.9331 137.5 20.1496 137.5 19.1831C137.5 18.2166 136.716 17.4331 135.75 17.4331C134.784 17.4331 134 18.2166 134 19.1831C134 20.1496 134.784 20.9331 135.75 20.9331Z" stroke="#283859" stroke-width="1.6" stroke-miterlimit="10"/>
<rect x="156.5" y="0.933105" width="30" height="30" rx="5" fill="#F7F7F9"/>
<path d="M164 13.9331L171.5 9.93311L179 13.9331L171.5 17.9331L164 13.9331Z" stroke="#283859" stroke-linecap="round" stroke-linejoin="round"/>
<path d="M175.25 22.9331V15.9331L171.5 13.9331" stroke="#283859" stroke-linecap="round" stroke-linejoin="round"/>
<path d="M177.25 14.8664V18.274C177.25 18.3818 177.215 18.4868 177.151 18.5732C176.73 19.1334 174.953 21.1831 171.5 21.1831C168.047 21.1831 166.27 19.1334 165.849 18.5732C165.785 18.4868 165.75 18.3818 165.75 18.274V14.8664" stroke="#283859" stroke-linecap="round" stroke-linejoin="round"/>
<rect x="195.5" y="0.933105" width="30" height="30" rx="5" fill="#F7F7F9"/>
<path d="M216.664 15.5932L215.312 16.2691L213.562 12.9177L214.928 12.235C215.031 12.1837 215.149 12.1747 215.258 12.21C215.367 12.2453 215.458 12.3221 215.511 12.4238L216.856 14.9994C216.883 15.0509 216.9 15.1072 216.905 15.1651C216.909 15.223 216.903 15.2813 216.885 15.3366C216.867 15.3919 216.838 15.443 216.8 15.4871C216.762 15.5312 216.716 15.5672 216.664 15.5932V15.5932Z" stroke="#283859" stroke-linecap="round" stroke-linejoin="round"/>
<path d="M205.687 16.2105L204.336 15.5346C204.284 15.5086 204.237 15.4725 204.199 15.4285C204.162 15.3844 204.133 15.3333 204.115 15.278C204.097 15.2227 204.09 15.1644 204.095 15.1065C204.1 15.0486 204.117 14.9923 204.143 14.9408L205.488 12.3652C205.541 12.2635 205.632 12.1867 205.741 12.1514C205.851 12.1161 205.969 12.1251 206.072 12.1763L207.437 12.8591L205.687 16.2105Z" stroke="#283859" stroke-linecap="round" stroke-linejoin="round"/>
<path d="M215.312 16.2691L214.438 17.2927L212.425 19.3051C212.372 19.3585 212.305 19.3972 212.233 19.4173C212.16 19.4375 212.083 19.4385 212.01 19.4202L208.84 18.6278C208.781 18.6129 208.725 18.5857 208.677 18.548L205.688 16.2105" stroke="#283859" stroke-linecap="round" stroke-linejoin="round"/>
<path d="M214.437 17.2927L212.031 15.5427L211.331 16.0677C211.028 16.2949 210.66 16.4177 210.281 16.4177C209.903 16.4177 209.534 16.2949 209.231 16.0677L208.935 15.8454C208.885 15.8078 208.843 15.7598 208.813 15.7048C208.783 15.6498 208.765 15.5889 208.761 15.5264C208.756 15.4639 208.765 15.4011 208.787 15.3424C208.809 15.2837 208.844 15.2304 208.888 15.186L211.028 13.0459C211.069 13.0052 211.117 12.973 211.17 12.951C211.223 12.929 211.28 12.9177 211.337 12.9177H213.562" stroke="#283859" stroke-linecap="round" stroke-linejoin="round"/>
<path d="M207.469 12.8591L210.275 12.0409C210.376 12.0117 210.483 12.0193 210.578 12.0623L212.469 12.9177" stroke="#283859" stroke-linecap="round" stroke-linejoin="round"/>
<path d="M209.625 20.574L207.977 20.1619C207.91 20.1452 207.848 20.1129 207.796 20.0677L206.562 18.9956" stroke="#283859" stroke-linecap="round" stroke-linejoin="round"/>
<rect x="234.5" y="0.933105" width="30" height="30" rx="5" fill="#F7F7F9"/>
<path d="M254 11.4331L245 20.4331" stroke="#283859" stroke-linecap="round" stroke-linejoin="round"/>
<path d="M246.25 14.4331C247.216 14.4331 248 13.6496 248 12.6831C248 11.7166 247.216 10.9331 246.25 10.9331C245.284 10.9331 244.5 11.7166 244.5 12.6831C244.5 13.6496 245.284 14.4331 246.25 14.4331Z" stroke="#283859" stroke-width="1.6" stroke-miterlimit="10"/>
<path d="M252.75 20.9331C253.716 20.9331 254.5 20.1496 254.5 19.1831C254.5 18.2166 253.716 17.4331 252.75 17.4331C251.784 17.4331 251 18.2166 251 19.1831C251 20.1496 251.784 20.9331 252.75 20.9331Z" stroke="#283859" stroke-width="1.6" stroke-miterlimit="10"/>
<rect x="273.5" y="0.933105" width="30" height="30" rx="5" fill="#F7F7F9"/>
<path d="M281 13.9331L288.5 9.93311L296 13.9331L288.5 17.9331L281 13.9331Z" stroke="#2C3D5D" stroke-linecap="round" stroke-linejoin="round"/>
<path d="M292.25 22.9331V15.9331L288.5 13.9331" stroke="#2C3D5D" stroke-linecap="round" stroke-linejoin="round"/>
<path d="M294.25 14.8664V18.274C294.25 18.3818 294.215 18.4868 294.151 18.5732C293.73 19.1334 291.953 21.1831 288.5 21.1831C285.047 21.1831 283.27 19.1334 282.849 18.5732C282.785 18.4868 282.75 18.3818 282.75 18.274V14.8664" stroke="#2C3D5D" stroke-linecap="round" stroke-linejoin="round"/>
<rect x="312.5" y="0.933105" width="30" height="30" rx="5" fill="#F7F7F9"/>
<path d="M333.664 15.5932L332.312 16.2691L330.562 12.9177L331.928 12.235C332.031 12.1837 332.149 12.1747 332.258 12.21C332.367 12.2453 332.458 12.3221 332.511 12.4238L333.856 14.9994C333.883 15.0509 333.9 15.1072 333.905 15.1651C333.909 15.223 333.903 15.2813 333.885 15.3366C333.867 15.3919 333.838 15.443 333.8 15.4871C333.762 15.5312 333.716 15.5672 333.664 15.5932V15.5932Z" stroke="#283859" stroke-linecap="round" stroke-linejoin="round"/>
<path d="M322.687 16.2105L321.336 15.5346C321.284 15.5086 321.237 15.4725 321.199 15.4285C321.162 15.3844 321.133 15.3333 321.115 15.278C321.097 15.2227 321.09 15.1644 321.095 15.1065C321.1 15.0486 321.117 14.9923 321.143 14.9408L322.488 12.3652C322.541 12.2635 322.632 12.1867 322.741 12.1514C322.851 12.1161 322.969 12.1251 323.072 12.1763L324.437 12.8591L322.687 16.2105Z" stroke="#283859" stroke-linecap="round" stroke-linejoin="round"/>
<path d="M332.312 16.2691L331.438 17.2927L329.425 19.3051C329.372 19.3585 329.305 19.3972 329.233 19.4173C329.16 19.4375 329.083 19.4385 329.01 19.4202L325.84 18.6278C325.781 18.6129 325.725 18.5857 325.677 18.548L322.688 16.2105" stroke="#283859" stroke-linecap="round" stroke-linejoin="round"/>
<path d="M331.437 17.2927L329.031 15.5427L328.331 16.0677C328.028 16.2949 327.66 16.4177 327.281 16.4177C326.903 16.4177 326.534 16.2949 326.231 16.0677L325.935 15.8454C325.885 15.8078 325.843 15.7598 325.813 15.7048C325.783 15.6498 325.765 15.5889 325.761 15.5264C325.756 15.4639 325.765 15.4011 325.787 15.3424C325.809 15.2837 325.844 15.2304 325.888 15.186L328.028 13.0459C328.069 13.0052 328.117 12.973 328.17 12.951C328.223 12.929 328.28 12.9177 328.337 12.9177H330.562" stroke="#283859" stroke-linecap="round" stroke-linejoin="round"/>
<path d="M324.469 12.8591L327.275 12.0409C327.376 12.0117 327.483 12.0193 327.578 12.0623L329.469 12.9177" stroke="#283859" stroke-linecap="round" stroke-linejoin="round"/>
<path d="M326.625 20.574L324.977 20.1619C324.91 20.1452 324.848 20.1129 324.796 20.0677L323.562 18.9956" stroke="#283859" stroke-linecap="round" stroke-linejoin="round"/>
<defs>
<linearGradient id="paint0_linear_185_60" x1="2.02542" y1="30.9331" x2="31.3754" y2="2.68176" gradientUnits="userSpaceOnUse">
<stop stop-color="#2A3952"/>
<stop offset="0.53125" stop-color="#324564"/>
<stop offset="1" stop-color="#1F2D4F"/>
</linearGradient>
</defs>
</svg>
