<svg width="342" height="30" viewBox="0 0 342 30" fill="none" xmlns="http://www.w3.org/2000/svg">
<rect width="30" height="30" rx="5" fill="#F7F7F9"/>
<path d="M20.5 10H9.5C9.22386 10 9 10.2239 9 10.5V18C9 18.2761 9.22386 18.5 9.5 18.5H20.5C20.7761 18.5 21 18.2761 21 18V10.5C21 10.2239 20.7761 10 20.5 10Z" stroke="#283859" stroke-linecap="round" stroke-linejoin="round"/>
<path d="M17 18.5L19 21" stroke="#283859" stroke-linecap="round" stroke-linejoin="round"/>
<path d="M13 18.5L11 21" stroke="#283859" stroke-linecap="round" stroke-linejoin="round"/>
<path d="M13 14.5V16" stroke="#283859" stroke-linecap="round" stroke-linejoin="round"/>
<path d="M15 13.5V16" stroke="#283859" stroke-linecap="round" stroke-linejoin="round"/>
<path d="M17 12.5V16" stroke="#283859" stroke-linecap="round" stroke-linejoin="round"/>
<path d="M15 10V8.5" stroke="#283859" stroke-linecap="round" stroke-linejoin="round"/>
<rect x="39" width="30" height="30" rx="5" fill="#F7F7F9"/>
<path d="M46.1246 15.9948C45.3478 14.8162 45.0757 13.4229 45.3595 12.0765C45.6434 10.7302 46.4635 9.52334 47.666 8.68269C48.8685 7.84205 50.3707 7.4254 51.8903 7.51099C53.41 7.59658 54.8427 8.17851 55.9194 9.14752C56.9961 10.1165 57.6427 11.4059 57.7378 12.7737C57.8329 14.1414 57.37 15.4933 56.4359 16.5755C55.5019 17.6578 54.161 18.396 52.665 18.6514C51.169 18.9068 49.6209 18.662 48.3113 17.9628L48.3114 17.9628L46.1518 18.5181C46.0625 18.5411 45.9679 18.5421 45.878 18.5211C45.788 18.5002 45.7059 18.4579 45.6402 18.3988C45.5745 18.3397 45.5276 18.2658 45.5043 18.1848C45.481 18.1039 45.4821 18.0188 45.5077 17.9384L46.1247 15.9948L46.1246 15.9948Z" stroke="#283859" stroke-linecap="round" stroke-linejoin="round"/>
<path d="M50.25 18.3209C50.5662 19.1938 51.0774 19.9876 51.747 20.6452C52.4165 21.3028 53.2277 21.8078 54.1221 22.1238C55.0165 22.4398 55.9718 22.559 56.9192 22.4728C57.8667 22.3865 58.7826 22.097 59.6012 21.6251L59.6012 21.6251L61.8224 22.2423C61.9143 22.2678 62.0116 22.269 62.1041 22.2457C62.1966 22.2223 62.281 22.1754 62.3486 22.1097C62.4162 22.0439 62.4645 21.9618 62.4885 21.8718C62.5124 21.7819 62.5112 21.6873 62.485 21.5979L61.8503 19.4377L61.8504 19.4377C62.4143 18.5129 62.7235 17.4623 62.7484 16.3873C62.7732 15.3124 62.5127 14.2494 61.9921 13.3008C61.4715 12.3523 60.7083 11.5502 59.7762 10.972C58.844 10.3939 57.7744 10.0591 56.6705 10" stroke="#283859" stroke-linecap="round" stroke-linejoin="round"/>
<rect x="78" width="30" height="30" rx="5" fill="#324463"/>
<path d="M86 13.5L93 17.5L100 13.5L93 9.5L86 13.5Z" stroke="white" stroke-linecap="round" stroke-linejoin="round"/>
<path d="M86 16L93 20L100 16" stroke="white" stroke-linecap="round" stroke-linejoin="round"/>
<rect x="117" width="30" height="30" rx="5" fill="#F7F7F9"/>
<path d="M136.5 10.5L127.5 19.5" stroke="#283859" stroke-linecap="round" stroke-linejoin="round"/>
<path d="M128.75 13.5C129.716 13.5 130.5 12.7165 130.5 11.75C130.5 10.7835 129.716 10 128.75 10C127.784 10 127 10.7835 127 11.75C127 12.7165 127.784 13.5 128.75 13.5Z" stroke="#283859" stroke-width="1.6" stroke-miterlimit="10"/>
<path d="M135.25 20C136.216 20 137 19.2165 137 18.25C137 17.2835 136.216 16.5 135.25 16.5C134.284 16.5 133.5 17.2835 133.5 18.25C133.5 19.2165 134.284 20 135.25 20Z" stroke="#283859" stroke-width="1.6" stroke-miterlimit="10"/>
<rect x="156" width="30" height="30" rx="5" fill="#F7F7F9"/>
<path d="M163.5 13L171 9L178.5 13L171 17L163.5 13Z" stroke="#283859" stroke-linecap="round" stroke-linejoin="round"/>
<path d="M174.75 22V15L171 13" stroke="#283859" stroke-linecap="round" stroke-linejoin="round"/>
<path d="M176.75 13.9333V17.3409C176.75 17.4487 176.715 17.5537 176.651 17.6401C176.23 18.2003 174.453 20.25 171 20.25C167.547 20.25 165.77 18.2003 165.349 17.6401C165.285 17.5537 165.25 17.4487 165.25 17.3409V13.9333" stroke="#283859" stroke-linecap="round" stroke-linejoin="round"/>
<rect x="195" width="30" height="30" rx="5" fill="#F7F7F9"/>
<path d="M216.164 14.6601L214.812 15.336L213.062 11.9846L214.428 11.3019C214.531 11.2506 214.649 11.2416 214.758 11.2769C214.867 11.3122 214.958 11.389 215.011 11.4907L216.356 14.0663C216.383 14.1178 216.4 14.1741 216.405 14.232C216.409 14.2899 216.403 14.3482 216.385 14.4035C216.367 14.4588 216.338 14.5099 216.3 14.554C216.262 14.598 216.216 14.6341 216.164 14.6601V14.6601Z" stroke="#283859" stroke-linecap="round" stroke-linejoin="round"/>
<path d="M205.187 15.2774L203.836 14.6015C203.784 14.5755 203.737 14.5394 203.699 14.4954C203.662 14.4513 203.633 14.4001 203.615 14.3449C203.597 14.2896 203.59 14.2313 203.595 14.1734C203.6 14.1155 203.617 14.0592 203.643 14.0077L204.988 11.432C205.041 11.3304 205.132 11.2536 205.241 11.2183C205.351 11.183 205.469 11.1919 205.572 11.2432L206.937 11.926L205.187 15.2774Z" stroke="#283859" stroke-linecap="round" stroke-linejoin="round"/>
<path d="M214.812 15.336L213.938 16.3596L211.925 18.372C211.872 18.4254 211.805 18.4641 211.733 18.4842C211.66 18.5044 211.583 18.5054 211.51 18.487L208.34 17.6947C208.281 17.6798 208.225 17.6526 208.177 17.6149L205.188 15.2774" stroke="#283859" stroke-linecap="round" stroke-linejoin="round"/>
<path d="M213.937 16.3596L211.531 14.6096L210.831 15.1346C210.528 15.3618 210.16 15.4846 209.781 15.4846C209.403 15.4846 209.034 15.3618 208.731 15.1346L208.435 14.9123C208.385 14.8747 208.343 14.8267 208.313 14.7717C208.283 14.7167 208.265 14.6558 208.261 14.5933C208.256 14.5308 208.265 14.468 208.287 14.4093C208.309 14.3506 208.344 14.2972 208.388 14.2529L210.528 12.1128C210.569 12.0721 210.617 12.0399 210.67 12.0179C210.723 11.9959 210.78 11.9846 210.837 11.9846H213.062" stroke="#283859" stroke-linecap="round" stroke-linejoin="round"/>
<path d="M206.969 11.926L209.775 11.1078C209.876 11.0786 209.983 11.0862 210.078 11.1292L211.969 11.9846" stroke="#283859" stroke-linecap="round" stroke-linejoin="round"/>
<path d="M209.125 19.6409L207.477 19.2288C207.41 19.2121 207.348 19.1798 207.296 19.1346L206.062 18.0625" stroke="#283859" stroke-linecap="round" stroke-linejoin="round"/>
<rect x="234" width="30" height="30" rx="5" fill="#F7F7F9"/>
<path d="M253.5 10.5L244.5 19.5" stroke="#283859" stroke-linecap="round" stroke-linejoin="round"/>
<path d="M245.75 13.5C246.716 13.5 247.5 12.7165 247.5 11.75C247.5 10.7835 246.716 10 245.75 10C244.784 10 244 10.7835 244 11.75C244 12.7165 244.784 13.5 245.75 13.5Z" stroke="#283859" stroke-width="1.6" stroke-miterlimit="10"/>
<path d="M252.25 20C253.216 20 254 19.2165 254 18.25C254 17.2835 253.216 16.5 252.25 16.5C251.284 16.5 250.5 17.2835 250.5 18.25C250.5 19.2165 251.284 20 252.25 20Z" stroke="#283859" stroke-width="1.6" stroke-miterlimit="10"/>
<rect x="273" width="30" height="30" rx="5" fill="#F7F7F9"/>
<path d="M280.5 13L288 9L295.5 13L288 17L280.5 13Z" stroke="#2C3D5D" stroke-linecap="round" stroke-linejoin="round"/>
<path d="M291.75 22V15L288 13" stroke="#2C3D5D" stroke-linecap="round" stroke-linejoin="round"/>
<path d="M293.75 13.9333V17.3409C293.75 17.4487 293.715 17.5537 293.651 17.6401C293.23 18.2003 291.453 20.25 288 20.25C284.547 20.25 282.77 18.2003 282.349 17.6401C282.285 17.5537 282.25 17.4487 282.25 17.3409V13.9333" stroke="#2C3D5D" stroke-linecap="round" stroke-linejoin="round"/>
<rect x="312" width="30" height="30" rx="5" fill="#F7F7F9"/>
<path d="M333.164 14.6601L331.812 15.336L330.062 11.9846L331.428 11.3019C331.531 11.2506 331.649 11.2416 331.758 11.2769C331.867 11.3122 331.958 11.389 332.011 11.4907L333.356 14.0663C333.383 14.1178 333.4 14.1741 333.405 14.232C333.409 14.2899 333.403 14.3482 333.385 14.4035C333.367 14.4588 333.338 14.5099 333.3 14.554C333.262 14.598 333.216 14.6341 333.164 14.6601V14.6601Z" stroke="#283859" stroke-linecap="round" stroke-linejoin="round"/>
<path d="M322.187 15.2774L320.836 14.6015C320.784 14.5755 320.737 14.5394 320.699 14.4954C320.662 14.4513 320.633 14.4001 320.615 14.3449C320.597 14.2896 320.59 14.2313 320.595 14.1734C320.6 14.1155 320.617 14.0592 320.643 14.0077L321.988 11.432C322.041 11.3304 322.132 11.2536 322.241 11.2183C322.351 11.183 322.469 11.1919 322.572 11.2432L323.937 11.926L322.187 15.2774Z" stroke="#283859" stroke-linecap="round" stroke-linejoin="round"/>
<path d="M331.812 15.336L330.938 16.3596L328.925 18.372C328.872 18.4254 328.805 18.4641 328.733 18.4842C328.66 18.5044 328.583 18.5054 328.51 18.487L325.34 17.6947C325.281 17.6798 325.225 17.6526 325.177 17.6149L322.188 15.2774" stroke="#283859" stroke-linecap="round" stroke-linejoin="round"/>
<path d="M330.937 16.3596L328.531 14.6096L327.831 15.1346C327.528 15.3618 327.16 15.4846 326.781 15.4846C326.403 15.4846 326.034 15.3618 325.731 15.1346L325.435 14.9123C325.385 14.8747 325.343 14.8267 325.313 14.7717C325.283 14.7167 325.265 14.6558 325.261 14.5933C325.256 14.5308 325.265 14.468 325.287 14.4093C325.309 14.3506 325.344 14.2972 325.388 14.2529L327.528 12.1128C327.569 12.0721 327.617 12.0399 327.67 12.0179C327.723 11.9959 327.78 11.9846 327.837 11.9846H330.062" stroke="#283859" stroke-linecap="round" stroke-linejoin="round"/>
<path d="M323.969 11.926L326.775 11.1078C326.876 11.0786 326.983 11.0862 327.078 11.1292L328.969 11.9846" stroke="#283859" stroke-linecap="round" stroke-linejoin="round"/>
<path d="M326.125 19.6409L324.477 19.2288C324.41 19.2121 324.348 19.1798 324.296 19.1346L323.062 18.0625" stroke="#283859" stroke-linecap="round" stroke-linejoin="round"/>
</svg>
