<?xml version="1.0" encoding="UTF-8"?><svg id="Layer_2" xmlns="http://www.w3.org/2000/svg" viewBox="0 0 756.46 148.16"><defs><style>.cls-1{fill:#fff;}.cls-2{fill:#9cc540;}</style></defs><g id="Ebene_1"><g><g><g><path class="cls-1" d="M305.32,10.87l-18.41,30.61-18.38-30.56,.05-.05h-17.72l-30.52,32.19V10.87h-15.85V79.78h15.85v-17.42c21.97-22.9,14.56-15.17,37.92-40.37l19.98,33.18v24.61h15.95v-24.41l26.78-44.49h-15.65Z"/><polygon class="cls-1" points="233.48 57.8 251.85 79.78 270.26 79.78 243.85 46.89 233.48 57.8"/><path class="cls-1" d="M189.94,42.89c-3.24-1.2-7.39-2.41-12.47-3.62-4.88-1.08-8.52-2.17-10.9-3.28-2.38-1.11-3.57-2.81-3.57-5.09s1.03-4.13,3.09-5.52c2.06-1.4,5.25-2.09,9.57-2.09,.62,0,22.55,.04,22.57,.05V10.87s-21.89,0-22.49,0c-6.09,0-11.24,.96-15.45,2.8s-7.38,4.33-9.47,7.47c-2.1,3.14-3.14,6.65-3.14,10.52,0,4.44,1.16,7.99,3.47,10.66,2.32,2.66,5.09,4.6,8.33,5.81,3.24,1.21,7.39,2.41,12.47,3.62,3.29,.76,5.91,1.46,7.85,2.09,1.94,.63,3.52,1.48,4.76,2.52,1.24,1.05,1.86,2.36,1.86,3.95,0,2.16-1.04,3.89-3.14,5.19-2.09,1.3-5.33,1.95-9.7,1.95-3.94,0-7.87-.63-11.8-1.9-3.93-1.27-7.33-2.95-10.18-5.05l-5.23,11.61c2.98,2.29,6.93,4.14,11.85,5.57,4.92,1.43,10.01,2.14,15.27,2.14,6.09,0,11.26-.92,15.51-2.76,4.25-1.84,7.44-4.33,9.57-7.47,2.13-3.14,3.19-6.61,3.19-10.42,0-4.44-1.16-7.96-3.48-10.57-2.31-2.6-5.09-4.5-8.33-5.71Z"/></g><g><polygon class="cls-1" points="593.84 49.37 629.94 49.37 629.94 37.6 593.84 37.6 593.84 22.56 631.53 22.56 631.53 10.79 578.01 10.79 578.01 80.03 632.02 80.03 632.02 68.26 593.84 68.26 593.84 49.37"/><polygon class="cls-1" points="320.17 22.56 335.58 22.56 335.58 80.03 351.41 80.03 351.41 22.56 374.45 22.56 374.45 10.79 327.04 10.79 320.17 22.56"/><path class="cls-1" d="M690.63,45.64h-.02c2.98-3.3,4.71-7.85,4.71-13.78,0-15.04-10.78-21.07-23.54-21.07h-33.93V80.03h15.83v-25.41h0v-18.43h0v-14.22h15.63c6.23,0,10.39,3.17,10.39,9.89,0,2.9-.81,5.1-2.19,6.71h.1s-12.5,14.44-12.5,14.44l18.25,27.03h17.01l-17.39-25.83,7.66-8.56Z"/><path class="cls-1" d="M538.55,10.79h-28.69V79.49l15.83-16.2V22.56h12.86c13.75,0,19.59,7.62,19.59,22.85s-6.03,22.85-19.59,22.85h-8.78l-11.68,11.77h20.46c12.36,0,21.96-3.96,27.4-10.39,5.44-6.63,8.01-14.64,8.01-24.23s-2.57-17.71-8.01-24.14c-5.44-6.63-15.04-10.48-27.4-10.48Z"/><path class="cls-1" d="M752.98,48.6c-2.31-2.6-5.09-4.5-8.33-5.71-3.24-1.2-7.39-2.41-12.47-3.62-4.88-1.08-8.52-2.17-10.9-3.28-2.38-1.11-3.57-2.81-3.57-5.09s1.03-4.13,3.09-5.52c2.06-1.4,5.25-2.09,9.57-2.09,.62,0,22.55,.04,22.57,.05V10.87s-21.89,0-22.49,0c-6.09,0-11.24,.96-15.45,2.8-4.22,1.84-7.38,4.33-9.47,7.47-2.1,3.14-3.14,6.65-3.14,10.52,0,4.44,1.16,7.99,3.47,10.66,2.32,2.66,5.09,4.6,8.33,5.81,3.24,1.21,7.39,2.41,12.47,3.62,3.29,.76,5.91,1.46,7.85,2.09,1.94,.63,3.52,1.48,4.76,2.52,1.24,1.05,1.86,2.36,1.86,3.95,0,2.16-1.04,3.89-3.14,5.19-2.09,1.3-5.33,1.95-9.7,1.95-3.94,0-7.87-.63-11.8-1.9-3.93-1.27-7.33-2.95-10.18-5.05l-5.23,11.61c2.98,2.29,6.93,4.14,11.85,5.57,4.92,1.43,10.01,2.14,15.27,2.14,6.09,0,11.26-.92,15.51-2.76,4.25-1.84,7.44-4.33,9.57-7.47,2.13-3.14,3.19-6.61,3.19-10.42,0-4.44-1.16-7.96-3.48-10.57Z"/><path class="cls-1" d="M461.99,10.79l-24.37,62.26-12.69-18.85,7.66-8.56h-.02c2.98-3.3,4.71-7.85,4.71-13.78,0-15.04-10.78-21.07-23.54-21.07h-33.93V80.03h15.83v-25.41h0v-18.43h0v-14.22h15.63c6.23,0,10.39,3.17,10.39,9.89,0,2.9-.81,5.1-2.19,6.71h.1s-12.5,14.44-12.5,14.44l18.25,27.03h25.8l3.12-8.11h-.01l16.31-42.49,13.67,35.96h.05l5.54,14.64h16.22l-27.1-69.24h-16.91Z"/></g><g><polygon class="cls-1" points="89.56 0 88.62 0 58.94 30.42 31.5 0 30.57 0 8.32 0 47.3 42.35 0 90.82 25.71 90.46 111.81 0 89.56 0"/><polygon class="cls-1" points="152.05 0 126.34 .36 40.24 90.82 62.49 90.82 63.43 90.82 92.85 60.93 120.55 90.82 121.48 90.82 143.73 90.82 104.75 48.47 152.05 0"/></g></g><path class="cls-2" d="M553.23,116.24h4.24v31.91h-4.24v-31.91Z"/><path class="cls-2" d="M259.1,116.24h4.24v31.91h-4.24v-31.91Z"/><g><path class="cls-1" d="M87.98,143.29c-1.06,.94-4.23,3.13-8.86,3.13-8.03,0-13.91-6.11-13.91-14.23s6.08-14.23,13.83-14.23c4.12,0,7.05,1.69,8.51,2.86l-1.02,2.82c-1.06-.86-3.76-2.7-7.41-2.7-6.07,0-10.62,4.86-10.62,11.25s4.35,11.25,10.7,11.25c4.15,0,6.86-2.16,7.8-2.94l.98,2.78Z"/><path class="cls-1" d="M104.87,117.97c7.99,0,13.99,6.23,13.99,14.23s-6.04,14.23-14.03,14.23-13.95-6.07-13.95-14.23,6.04-14.23,13.99-14.23Zm0,25.48c6.07,0,10.7-4.74,10.7-11.25s-4.62-11.25-10.7-11.25-10.7,4.82-10.7,11.25,4.63,11.25,10.7,11.25Z"/><path class="cls-1" d="M123.45,118.48h3.17l15.13,21.83v-21.83h3.13v27.43h-3.13l-15.13-21.75v21.75h-3.17v-27.43Z"/><path class="cls-1" d="M151.04,118.48h3.17l15.13,21.83v-21.83h3.13v27.43h-3.13l-15.13-21.75v21.75h-3.17v-27.43Z"/><path class="cls-1" d="M178.67,118.48h13.01v2.9h-9.84v9.13h8.58v2.86h-8.58v9.68h10.27v2.86h-13.44v-27.43Z"/><path class="cls-1" d="M218.45,143.29c-1.06,.94-4.23,3.13-8.86,3.13-8.03,0-13.91-6.11-13.91-14.23s6.08-14.23,13.83-14.23c4.12,0,7.05,1.69,8.51,2.86l-1.02,2.82c-1.06-.86-3.76-2.7-7.41-2.7-6.07,0-10.62,4.86-10.62,11.25s4.35,11.25,10.7,11.25c4.15,0,6.86-2.16,7.8-2.94l.98,2.78Z"/><path class="cls-1" d="M228.09,121.38h-7.41v-2.9h17.95v2.9h-7.37v24.53h-3.17v-24.53Z"/></g><g><path class="cls-1" d="M302.66,143.29c-1.06,.94-4.23,3.13-8.86,3.13-8.03,0-13.91-6.11-13.91-14.23s6.08-14.23,13.83-14.23c4.12,0,7.05,1.69,8.51,2.86l-1.02,2.82c-1.06-.86-3.76-2.7-7.41-2.7-6.07,0-10.62,4.86-10.62,11.25s4.35,11.25,10.7,11.25c4.15,0,6.86-2.16,7.8-2.94l.98,2.78Z"/><path class="cls-1" d="M319.55,117.97c7.99,0,13.99,6.23,13.99,14.23s-6.04,14.23-14.03,14.23-13.95-6.07-13.95-14.23,6.04-14.23,13.99-14.23Zm0,25.48c6.07,0,10.7-4.74,10.7-11.25s-4.62-11.25-10.7-11.25-10.7,4.82-10.7,11.25,4.63,11.25,10.7,11.25Z"/><path class="cls-1" d="M338.16,118.48h3.17v24.57h10.27v2.86h-13.44v-27.43Z"/><path class="cls-1" d="M355.76,118.48h3.17v24.57h10.27v2.86h-13.44v-27.43Z"/><path class="cls-1" d="M377.23,137.02l-3.29,8.9h-3.21l10.27-27.43h3.21l10.27,27.43h-3.21l-3.29-8.9h-10.74Zm5.37-15.05l-4.39,12.31h8.82l-4.43-12.31Z"/><path class="cls-1" d="M398.08,118.48h7.56c5.21,0,8.15,2.66,8.15,7.02,0,2.74-1.37,4.86-3.53,6.04,2.63,.94,4.47,3.25,4.47,6.58,0,4.94-3.57,7.8-8.27,7.8h-8.39v-27.43Zm7.92,11.88c2.74,0,4.55-1.84,4.55-4.62s-1.61-4.43-4.55-4.43h-4.74v9.05h4.74Zm-.08,12.78c3.25,0,5.53-1.57,5.53-5.1s-2.39-5.02-5.57-5.02h-4.62v10.11h4.66Z"/><path class="cls-1" d="M431.79,117.97c7.99,0,13.99,6.23,13.99,14.23s-6.04,14.23-14.03,14.23-13.95-6.07-13.95-14.23,6.04-14.23,13.99-14.23Zm0,25.48c6.07,0,10.7-4.74,10.7-11.25s-4.62-11.25-10.7-11.25-10.7,4.82-10.7,11.25,4.63,11.25,10.7,11.25Z"/><path class="cls-1" d="M450.4,118.48h6.98c5.6,0,8.54,2.82,8.54,7.6,0,3.25-1.61,6.23-4.78,7.25l6.82,12.58h-3.53l-6.19-11.91h-4.66v11.91h-3.17v-27.43Zm6.98,12.74c3.21,0,5.21-1.49,5.21-5.1,0-2.9-1.53-4.82-5.41-4.82h-3.61v9.92h3.8Z"/><path class="cls-1" d="M475.72,137.02l-3.29,8.9h-3.21l10.27-27.43h3.21l10.27,27.43h-3.21l-3.29-8.9h-10.74Zm5.37-15.05l-4.39,12.31h8.82l-4.43-12.31Z"/><path class="cls-1" d="M499.35,121.38h-7.41v-2.9h17.95v2.9h-7.37v24.53h-3.17v-24.53Z"/><path class="cls-1" d="M514.24,118.48h13.01v2.9h-9.84v9.13h8.58v2.86h-8.58v9.68h10.27v2.86h-13.44v-27.43Z"/></g><g><path class="cls-1" d="M582.34,121.38h-7.41v-2.9h17.95v2.9h-7.37v24.53h-3.17v-24.53Z"/><path class="cls-1" d="M597.24,118.48h6.98c5.6,0,8.54,2.82,8.54,7.6,0,3.25-1.61,6.23-4.78,7.25l6.82,12.58h-3.53l-6.19-11.91h-4.66v11.91h-3.17v-27.43Zm6.98,12.74c3.21,0,5.21-1.49,5.21-5.1,0-2.9-1.53-4.82-5.41-4.82h-3.61v9.92h3.8Z"/><path class="cls-1" d="M622.55,137.02l-3.29,8.9h-3.21l10.27-27.43h3.21l10.27,27.43h-3.21l-3.29-8.9h-10.74Zm5.37-15.05l-4.39,12.31h8.82l-4.43-12.31Z"/><path class="cls-1" d="M643.4,118.48h5.64c9.37,0,14.7,5.13,14.7,13.72,0,9.09-5.53,13.72-14.7,13.72h-5.64v-27.43Zm6.27,24.61c6.58,0,10.82-3.72,10.82-10.9s-4.23-10.86-10.82-10.86h-3.1v21.75h3.1Z"/><path class="cls-1" d="M668.37,118.48h13.01v2.9h-9.84v9.13h8.58v2.86h-8.58v9.68h10.27v2.86h-13.44v-27.43Z"/></g></g></g></svg>