<svg width="37" height="37" viewBox="0 0 37 37" fill="none" xmlns="http://www.w3.org/2000/svg">
<circle cx="18.5" cy="18.5" r="18.5" fill="white"/>
<path d="M22.8333 13.85C22.8333 13.85 23.2583 14.2667 22.8333 13.85C22.2637 13.1997 21.9498 12.3645 21.95 11.5H19.375V21.8333C19.3551 22.3925 19.1191 22.9222 18.7165 23.3108C18.3139 23.6994 17.7762 23.9166 17.2167 23.9167C16.0333 23.9167 15.05 22.95 15.05 21.75C15.05 20.3167 16.4333 19.2417 17.8583 19.6833V17.05C14.9833 16.6667 12.4667 18.9 12.4667 21.75C12.4667 24.525 14.7667 26.5 17.2083 26.5C19.825 26.5 21.95 24.375 21.95 21.75V16.5083C22.9942 17.2582 24.2478 17.6605 25.5333 17.6583V15.0833C25.5333 15.0833 23.9667 15.1583 22.8333 13.85Z" fill="black"/>
</svg>
