<svg width="100%" height="100%" viewBox="0 0 57 57" fill="none" xmlns="http://www.w3.org/2000/svg" fit="" preserveAspectRatio="xMidYMid meet" focusable="false">
<g clip-path="url('/v3.6/#clip0_16502_39217')">
<path d="M1.99023 37.8495C5.94644 48.5118 16.2096 56.1104 28.2487 56.1104C40.2877 56.1104 50.5509 48.5118 54.5071 37.8495L28.2487 35.4148L1.99023 37.8495Z" fill="#FFDA44"></path>
<path d="M28.2487 0.110474C16.2096 0.110474 5.94644 7.70897 1.99023 18.3714L28.2487 20.8061L54.5071 18.3713C50.5509 7.70897 40.2877 0.110474 28.2487 0.110474Z" fill="black"></path>
<path d="M1.99011 18.3713C0.864645 21.4046 0.248535 24.6854 0.248535 28.1104C0.248535 31.5354 0.864645 34.8162 1.99011 37.8495H54.5071C55.6325 34.8162 56.2485 31.5354 56.2485 28.1104C56.2485 24.6854 55.6325 21.4046 54.507 18.3713H1.99011Z" fill="#D80027"></path>
</g>
<defs>
<clipPath id="clip0_16502_39217">
<rect width="56" height="56" fill="white" transform="translate(0.249023 0.110229)"></rect>
</clipPath>
</defs>
</svg>