<svg width="100%" height="100%" viewBox="0 0 57 57" fill="none" xmlns="http://www.w3.org/2000/svg" fit="" preserveAspectRatio="xMidYMid meet" focusable="false">
<g clip-path="url('/v3.6/#clip0_16502_38910')">
<path d="M28.1392 56.6936C43.6031 56.6936 56.1392 44.1576 56.1392 28.6936C56.1392 13.2296 43.6031 0.693604 28.1392 0.693604C12.6752 0.693604 0.13916 13.2296 0.13916 28.6936C0.13916 44.1576 12.6752 56.6936 28.1392 56.6936Z" fill="#D80027"></path>
<path d="M15.4626 17.7343L17.8798 25.1718H25.7001L19.3782 29.7764L21.7954 37.2139L15.4626 32.6202L9.12979 37.2139L11.5579 29.7764L5.2251 25.1718H13.0454L15.4626 17.7343Z" fill="#FFDA44"></path>
<path d="M33.3346 44.0609L31.4861 41.7859L28.7518 42.8468L30.3377 40.3859L28.4893 38.0999L31.3221 38.8546L32.9189 36.3937L33.0721 39.3249L35.9158 40.0796L33.1705 41.1296L33.3346 44.0609Z" fill="#FFDA44"></path>
<path d="M37.0096 37.3889L37.8846 34.5889L35.4893 32.8936L38.4205 32.8499L39.2846 30.0499L40.2361 32.828L43.1674 32.7952L40.8158 34.5452L41.7564 37.3233L39.3611 35.628L37.0096 37.3889Z" fill="#FFDA44"></path>
<path d="M41.9645 21.2453L40.6739 23.8812L42.7739 25.9265L39.8755 25.5109L38.5849 28.1359L38.0817 25.2484L35.1724 24.8328L37.7755 23.4656L37.2724 20.5671L39.3724 22.6124L41.9645 21.2453Z" fill="#FFDA44"></path>
<path d="M33.4107 13.2608L33.192 16.1811L35.9154 17.2858L33.0607 17.9858L32.8529 20.9171L31.3107 18.4233L28.4561 19.1233L30.3482 16.8811L28.7951 14.3983L31.5186 15.503L33.4107 13.2608Z" fill="#FFDA44"></path>
</g>
<defs>
<clipPath id="clip0_16502_38910">
<rect width="56" height="56" fill="white" transform="translate(0.13916 0.693848)"></rect>
</clipPath>
</defs>
</svg>