<svg width="100%" height="100%" viewBox="0 0 57 57" fill="none" xmlns="http://www.w3.org/2000/svg" fit="" preserveAspectRatio="xMidYMid meet" focusable="false">
<g clip-path="url('/v3.6/#clip0_16502_40413')">
<path d="M28.3594 56.5266C43.8233 56.5266 56.3594 43.9906 56.3594 28.5266C56.3594 13.0626 43.8233 0.526581 28.3594 0.526581C12.8954 0.526581 0.359375 13.0626 0.359375 28.5266C0.359375 43.9906 12.8954 56.5266 28.3594 56.5266Z" fill="#F0F0F0"></path>
<path d="M16.1846 38.2658L18.6194 54.7854C21.6526 55.9109 24.9335 56.5267 28.3584 56.5267C40.3974 56.5267 50.6607 48.9282 54.6168 38.2658H16.1846Z" fill="black"></path>
<path d="M16.1846 18.7876L18.6194 2.268C21.6526 1.14242 24.9335 0.526642 28.3584 0.526642C40.3974 0.526642 50.6607 8.12514 54.6168 18.7876H16.1846Z" fill="#6DA544"></path>
<path d="M0.358398 28.5267C0.358398 40.5657 7.95701 50.8289 18.6193 54.7851V2.26825C7.95701 6.22445 0.358398 16.4877 0.358398 28.5267Z" fill="#A2001D"></path>
</g>
<defs>
<clipPath id="clip0_16502_40413">
<rect width="56" height="56" fill="white" transform="translate(0.359375 0.526367)"></rect>
</clipPath>
</defs>
</svg>